<svg viewBox="0 0 70 54" xmlns="http://www.w3.org/2000/svg" xmlns:xlink="http://www.w3.org/1999/xlink"><style>:root&gt;svg{display:none}:root&gt;svg:target{display:block}</style><svg fill="none" viewBox="0 0 16 16" id="css--111" xmlns="http://www.w3.org/2000/svg"><g fill-rule="evenodd" clip-rule="evenodd" fill="#0D0D0D"><path d="M4.668 8c0-.368.298-.666.667-.666H14a.667.667 0 110 1.333H5.335a.667.667 0 01-.667-.666z"/><path d="M10.863 4.861c.26-.26.683-.26.943 0l2.667 2.667c.26.26.26.682 0 .943l-2.667 2.666a.667.667 0 11-.943-.942l2.196-2.196-2.196-2.195a.667.667 0 010-.943zm-9.14-3.136c.25-.25.589-.391.942-.391H8a1.333 1.333 0 011.333 1.333v2.667a.667.667 0 01-1.333 0V2.667H2.665v10.667H8v-2.667a.667.667 0 111.333 0v2.667A1.333 1.333 0 018 14.667H2.665a1.333 1.333 0 01-1.333-1.333V2.667c0-.353.14-.692.39-.942z"/></g></svg><svg fill="none" viewBox="0 0 20 20" id="css--Arrows" xmlns="http://www.w3.org/2000/svg"><path fill-rule="evenodd" clip-rule="evenodd" d="M11.077 3.577a.833.833 0 000 1.179L16.321 10l-5.244 5.244a.833.833 0 101.179 1.178l5.833-5.833a.833.833 0 000-1.178l-5.833-5.834a.833.833 0 00-1.179 0z" fill="#0D0D0D"/><path fill-rule="evenodd" clip-rule="evenodd" d="M18.333 10a.833.833 0 00-.833-.833h-15a.833.833 0 000 1.666h15c.46 0 .833-.373.833-.833z" fill="#0D0D0D"/></svg><svg fill="none" viewBox="0 0 16 16" id="css--Heart" xmlns="http://www.w3.org/2000/svg"><path fill-rule="evenodd" clip-rule="evenodd" d="M5.241 2h.01A3.933 3.933 0 018 3.144a3.887 3.887 0 015.52.013 3.94 3.94 0 01-.001 5.56l-5.046 5.086a.667.667 0 01-.947 0L2.481 8.716A3.941 3.941 0 015.24 2zm.007 1.333a2.607 2.607 0 00-1.821 4.444L8 12.387l4.575-4.61a2.607 2.607 0 000-3.68l-.003-.002a2.554 2.554 0 00-3.637 0l-.006.006a2.307 2.307 0 00-.357.455.667.667 0 01-1.144 0 2.32 2.32 0 00-.357-.455l-.003-.004a2.6 2.6 0 00-1.82-.764z" fill="#0D0D0D"/></svg><svg fill="none" viewBox="0 0 70 24" id="css--Logo" xmlns="http://www.w3.org/2000/svg"><g clip-path="url(#adclip0_689_6069)"><mask id="ada" style="mask-type:luminance" maskUnits="userSpaceOnUse" x="0" y="0" width="70" height="24"><path d="M69.683 0H0v24h69.683V0z" fill="#fff"/></mask><g mask="url(#ada)"><path d="M2.098 2.111v20.14h12.996v-2.688H4.746V2.111H2.098z" fill="#000"/><mask id="adb" style="mask-type:luminance" maskUnits="userSpaceOnUse" x="0" y="0" width="70" height="24"><path d="M69.683 0H0v24h69.683V0z" fill="#fff"/></mask><g mask="url(#adb)" fill="#000"><path d="M28.173 8.627c-1.894-1.734-3.714-2.125-5.396-2.125-3.74 0-7.554 2.767-7.554 7.839 0 4.297 2.972 8.024 7.792 8.024 1.113 0 3.569-.37 5.164-2.006v1.84h2.57V6.602h-2.57v2.02l-.006.006zm-5.363.39c7.19-.039 6.64 11.223.086 11.03-2.847-.085-5.27-2.515-5.27-5.594 0-3.078 2.112-5.422 5.184-5.435zM67.387 6.58h-2.535v15.678h2.535V6.58zm0-4.607h-2.535v2.714h2.535V1.973zm-33.578-.186v20.465h2.436v-6.786l.642-.663 5.992 7.449h2.946l-7.362-9.038 6.256-6.435h-2.94l-5.534 5.601V1.787h-2.436zm13.537 0v20.399h2.536V20.14a7.78 7.78 0 005.343 2.125c4.621 0 7.879-3.125 7.879-7.905 0-5.707-3.721-7.899-7.8-7.899-1.138 0-3.773.417-5.428 2.152V1.787H47.34h.006zm7.965 7.038c3.085 0 5.33 2.119 5.33 5.588 0 3.257-2.264 5.429-5.33 5.429-6.892 0-7.137-11.01 0-11.01"/></g></g></g><defs><clipPath id="adclip0_689_6069"><path fill="#fff" d="M0 0h69.683v24H0z"/></clipPath></defs></svg><svg fill="none" viewBox="0 0 20 20" id="css--Math" xmlns="http://www.w3.org/2000/svg"><path fill-rule="evenodd" clip-rule="evenodd" d="M9.999 3.334c.46 0 .833.373.833.833v5h5a.833.833 0 110 1.667h-5v5a.833.833 0 01-1.667 0v-5h-5a.833.833 0 010-1.667h5v-5c0-.46.373-.833.834-.833z" fill="#F2F2F2"/></svg><svg fill="none" viewBox="0 0 20 20" id="css--Navigation" xmlns="http://www.w3.org/2000/svg"><path fill-rule="evenodd" clip-rule="evenodd" d="M13.652 2.24a1 1 0 01.108 1.41L8.318 10l5.442 6.35a1 1 0 11-1.519 1.3L5.684 10l6.557-7.65a1 1 0 011.41-.11z" fill="#0D0D0D"/></svg><svg fill="none" viewBox="0 0 24 24" id="css--User" xmlns="http://www.w3.org/2000/svg"><path fill-rule="evenodd" clip-rule="evenodd" d="M12 4a4 4 0 00-.004 8h.008a3.998 3.998 0 002.824-6.828A4 4 0 0012 4zm3.912 8.549a6 6 0 10-7.824 0A8 8 0 003 20a2 2 0 002 2h14a2 2 0 002-2 8 8 0 00-5.088-7.451zM12.006 14H11a6 6 0 00-6 6h14a6 6 0 00-6-6h-.994z" fill="#0D0D0D"/></svg><svg fill="none" viewBox="0 0 24 24" id="css--bag" xmlns="http://www.w3.org/2000/svg"><path fill-rule="evenodd" clip-rule="evenodd" d="M12 4a2 2 0 00-2 2v5a1 1 0 11-2 0V6a4 4 0 018 0v5a1 1 0 11-2 0V6a2 2 0 00-2-2z" fill="#0D0D0D"/><path fill-rule="evenodd" clip-rule="evenodd" d="M4.919 8.847C5.005 7.805 5.942 7 7.069 7h9.862c1.127 0 2.064.805 2.15 1.847l.913 11C20.09 21.008 19.1 22 17.844 22H6.156c-1.256 0-2.246-.992-2.15-2.153l.913-11zM16.93 9H7.07l-.913 11h11.688L16.93 9z" fill="#0D0D0D"/></svg><svg fill="none" viewBox="0 0 20 20" id="css--burger" xmlns="http://www.w3.org/2000/svg"><path d="M2.5 15h15m-15-5h15m-15-5h15" stroke="#0D0D0D" stroke-width="2" stroke-linecap="round" stroke-linejoin="round"/></svg><svg fill="none" viewBox="0 0 24 24" id="css--cart-full" xmlns="http://www.w3.org/2000/svg"><path fill-rule="evenodd" clip-rule="evenodd" d="M12 4a2 2 0 00-2 2v5a1 1 0 11-2 0V6a4 4 0 018 0v5a1 1 0 11-2 0V6a2 2 0 00-2-2z" fill="#0D0D0D"/><path fill-rule="evenodd" clip-rule="evenodd" d="M4.919 8.847C5.005 7.805 5.942 7 7.069 7h9.862c1.127 0 2.064.805 2.15 1.847l.913 11C20.09 21.008 19.1 22 17.844 22H6.156c-1.256 0-2.246-.992-2.15-2.153l.913-11zM16.93 9H7.07l-.913 11h11.688L16.93 9z" fill="#0D0D0D"/><circle cx="12" cy="16" r="3" fill="#C5230A"/></svg><svg fill="none" viewBox="0 0 24 24" id="css--clear" xmlns="http://www.w3.org/2000/svg"><g clip-path="url(#akclip0_3491_7493)"><circle cx="12" cy="12" r="8" fill="#0D0D0D"/><path fill-rule="evenodd" clip-rule="evenodd" d="M8.146 8.146a.5.5 0 01.708 0l7 7a.5.5 0 01-.708.708l-7-7a.5.5 0 010-.708z" fill="#F2F2F2"/><path fill-rule="evenodd" clip-rule="evenodd" d="M15.854 8.146a.5.5 0 010 .708l-7 7a.5.5 0 01-.708-.708l7-7a.5.5 0 01.708 0z" fill="#F2F2F2"/></g><defs><clipPath id="akclip0_3491_7493"><path fill="#fff" d="M0 0h24v24H0z"/></clipPath></defs></svg><svg fill="none" viewBox="0 0 24 24" id="css--close" xmlns="http://www.w3.org/2000/svg"><g fill-rule="evenodd" clip-rule="evenodd" fill="#0D0D0D"><path d="M4.293 4.293a1 1 0 011.414 0l14 14a1 1 0 01-1.414 1.414l-14-14a1 1 0 010-1.414z"/><path d="M19.707 4.293a1 1 0 010 1.414l-14 14a1 1 0 01-1.414-1.414l14-14a1 1 0 011.414 0z"/></g></svg><svg fill="none" viewBox="0 0 20 20" id="css--crossmobile" xmlns="http://www.w3.org/2000/svg"><g fill-rule="evenodd" clip-rule="evenodd" fill="#0D0D0D"><path d="M3.577 3.578a.833.833 0 011.179 0l11.666 11.666a.834.834 0 01-1.178 1.179L3.577 4.756a.833.833 0 010-1.178z"/><path d="M16.422 3.578a.833.833 0 010 1.178L4.756 16.423a.833.833 0 01-1.179-1.179L15.244 3.578a.833.833 0 011.178 0z"/></g></svg><svg fill="none" viewBox="0 0 20 20" id="css--filters" xmlns="http://www.w3.org/2000/svg"><path fill-rule="evenodd" clip-rule="evenodd" d="M5.332 3.334c.368 0 .667.298.667.667v8.78a2 2 0 11-1.334 0v-8.78c0-.369.299-.667.667-.667zm3.556.337a2 2 0 111.777 3.549V16a.667.667 0 01-1.333 0V7.22a2 2 0 01-.444-3.549zm1.111 2.33a.666.666 0 100-1.333.666.666 0 000 1.333zm4.666-2.667c.369 0 .667.298.667.667v4.114a2 2 0 010 3.771v4.115a.667.667 0 01-1.333 0v-4.115a2 2 0 010-3.771V4.001c0-.369.298-.667.666-.667zm0 7.333a.667.667 0 100-1.334.667.667 0 000 1.334zm-9.333 3.334a.667.667 0 100 1.334.667.667 0 000-1.334z" fill="#0D0D0D"/></svg><svg fill="none" viewBox="0 0 54 54" id="css--greenalert" xmlns="http://www.w3.org/2000/svg"><path fill-rule="evenodd" clip-rule="evenodd" d="M42.08 42.09l.01-.01a21.251 21.251 0 006.243-15.073v-.014A21.255 21.255 0 0042.09 11.92l-.009-.01a21.255 21.255 0 00-15.073-6.243h-.014A21.253 21.253 0 0011.92 11.91l-.01.009a21.253 21.253 0 00-6.243 15.073v.014A21.253 21.253 0 0011.91 42.08l.01.01a21.256 21.256 0 0015.073 6.243h.014A21.253 21.253 0 0042.08 42.09zM27 53.666a26.587 26.587 0 0018.856-7.811A26.586 26.586 0 0053.666 27a26.587 26.587 0 00-7.81-18.856A26.586 26.586 0 0027 .334a26.587 26.587 0 00-18.856 7.81A26.586 26.586 0 00.334 27a26.586 26.586 0 007.81 18.856A26.587 26.587 0 0027 53.666z" fill="#21A74D"/><path fill-rule="evenodd" clip-rule="evenodd" d="M27 44.333a3.333 3.333 0 100-6.666 3.333 3.333 0 000 6.666zm0-36A2.667 2.667 0 0129.667 11v21.333a2.667 2.667 0 11-5.334 0V11A2.667 2.667 0 0127 8.333z" fill="#21A74D"/></svg><svg fill="none" viewBox="0 0 13 16" id="css--group-2" xmlns="http://www.w3.org/2000/svg"><path fill-rule="evenodd" clip-rule="evenodd" d="M6.167 2a1.5 1.5 0 00-1.5 1.5v3.75a.75.75 0 11-1.5 0V3.5a3 3 0 116 0v3.75a.75.75 0 11-1.5 0V3.5a1.5 1.5 0 00-1.5-1.5z" fill="#F2F2F2"/><path fill-rule="evenodd" clip-rule="evenodd" d="M.856 5.635c.064-.782.767-1.385 1.612-1.385h7.397c.845 0 1.548.603 1.612 1.385l.685 8.25c.072.871-.67 1.615-1.613 1.615H1.784c-.942 0-1.685-.744-1.613-1.615l.685-8.25zm9.009.115H2.468L1.784 14h8.765l-.684-8.25z" fill="#F2F2F2"/></svg><svg fill="none" viewBox="0 0 16 16" id="css--logout" xmlns="http://www.w3.org/2000/svg"><path fill-rule="evenodd" clip-rule="evenodd" d="M4.664 8c0-.368.299-.666.667-.666h8.666a.667.667 0 110 1.333H5.331a.667.667 0 01-.667-.666z" fill="#0D0D0D"/><path fill-rule="evenodd" clip-rule="evenodd" d="M10.86 4.863c.26-.26.682-.26.942 0L14.47 7.53c.26.26.26.682 0 .943l-2.667 2.666a.667.667 0 01-.943-.942L13.055 8l-2.196-2.195a.667.667 0 010-.943zM1.723 1.725c.25-.25.589-.391.942-.391H8a1.333 1.333 0 011.333 1.333v2.667a.667.667 0 01-1.333 0V2.667H2.665v10.667H8v-2.667a.667.667 0 111.333 0v2.667A1.333 1.333 0 018 14.667H2.665a1.333 1.333 0 01-1.333-1.333V2.667c0-.353.14-.692.39-.942z" fill="#0D0D0D"/></svg><svg fill="none" viewBox="0 0 16 16" id="css--math-black" xmlns="http://www.w3.org/2000/svg"><path fill-rule="evenodd" clip-rule="evenodd" d="M8 2.667c.368 0 .667.298.667.666v4h4a.667.667 0 110 1.333h-4v4a.667.667 0 11-1.334 0v-4h-4a.667.667 0 110-1.333h4v-4c0-.368.299-.667.667-.667z" fill="#0D0D0D"/></svg><svg fill="none" viewBox="0 0 24 24" id="css--menu" xmlns="http://www.w3.org/2000/svg"><path d="M3 18h18M3 12h18M3 6h18" stroke="#0D0D0D" stroke-width="2" stroke-linecap="round" stroke-linejoin="round"/></svg><svg fill="none" viewBox="0 0 44 44" id="css--navigation-1" xmlns="http://www.w3.org/2000/svg"><path fill-rule="evenodd" clip-rule="evenodd" d="M15.307 7.775a1.833 1.833 0 00-.199 2.585L25.085 22l-9.977 11.64a1.833 1.833 0 102.784 2.386L29.915 22 17.892 7.974a1.833 1.833 0 00-2.585-.2z" fill="#0D0D0D"/></svg><svg fill="none" viewBox="0 0 24 24" id="css--nextmob" xmlns="http://www.w3.org/2000/svg"><path fill-rule="evenodd" clip-rule="evenodd" d="M8.35 4.24a1 1 0 00-.109 1.41L13.683 12l-5.442 6.35a1 1 0 001.519 1.3L16.317 12 9.76 4.35a1 1 0 00-1.41-.11z" fill="#0D0D0D"/></svg><svg fill="none" viewBox="0 0 21 21" id="css--not-show" xmlns="http://www.w3.org/2000/svg"><path fill-rule="evenodd" clip-rule="evenodd" d="M9.762 8.292a1.042 1.042 0 010 1.473 1.042 1.042 0 001.474 1.473 1.042 1.042 0 111.473 1.473 3.126 3.126 0 01-4.42-4.419 1.042 1.042 0 011.473 0z" fill="#0D0D0D"/><path fill-rule="evenodd" clip-rule="evenodd" d="M.388.389a1.042 1.042 0 011.473 0l14.167 14.166c.058.047.111.1.16.16l4.424 4.424a1.042 1.042 0 11-1.474 1.473l-3.943-3.943a10.103 10.103 0 01-4.699 1.123c-4.223-.002-7.64-2.383-10.264-6.756a1.042 1.042 0 010-1.072c1.114-1.856 2.371-3.36 3.785-4.474L.388 1.862a1.042 1.042 0 010-1.473zm5.114 6.587c-1.116.835-2.17 2-3.151 3.524 2.306 3.585 5.025 5.209 8.149 5.209h.007a8.022 8.022 0 003.12-.608L5.503 6.976zm4.995-1.684a8.334 8.334 0 00-1.686.166 1.042 1.042 0 11-.414-2.041c.692-.14 1.398-.21 2.105-.208 4.223 0 7.642 2.381 10.266 6.755.198.33.198.743 0 1.072-.727 1.21-1.513 2.27-2.363 3.169a1.042 1.042 0 01-1.515-1.43 15.62 15.62 0 001.76-2.275c-2.306-3.584-5.025-5.208-8.15-5.208h-.002z" fill="#0D0D0D"/></svg><svg fill="none" viewBox="0 0 25 25" id="css--place" xmlns="http://www.w3.org/2000/svg"><path d="M12.5 22.5s-7-8.167-7-14a7 7 0 0114 0c0 5.833-7 14-7 14zm0-16.333a2.333 2.333 0 100 4.666 2.333 2.333 0 000-4.666z" fill="#F2F2F2"/></svg><svg fill="none" viewBox="0 0 24 24" id="css--prevmob" xmlns="http://www.w3.org/2000/svg"><path fill-rule="evenodd" clip-rule="evenodd" d="M15.65 4.24a1 1 0 01.109 1.41L10.317 12l5.442 6.35a1 1 0 01-1.519 1.3L7.683 12l6.557-7.65a1 1 0 011.41-.11z" fill="#0D0D0D"/></svg><svg fill="none" viewBox="0 0 24 24" id="css--search" xmlns="http://www.w3.org/2000/svg"><path fill-rule="evenodd" clip-rule="evenodd" d="M11 4a7 7 0 100 14 7 7 0 000-14zm-5-.483a9 9 0 0112.032 13.1l3.675 3.676a1 1 0 01-1.414 1.414l-3.675-3.675A9.001 9.001 0 116 3.517z" fill="#0D0D0D"/></svg><svg fill="none" viewBox="0 0 20 20" id="css--searchmobile" xmlns="http://www.w3.org/2000/svg"><path fill-rule="evenodd" clip-rule="evenodd" d="M9.167 3.333a5.833 5.833 0 100 11.667 5.833 5.833 0 000-11.667zM5 2.93a7.5 7.5 0 0110.026 10.918l3.063 3.063a.833.833 0 11-1.178 1.178l-3.063-3.063A7.5 7.5 0 115 2.93z" fill="#0D0D0D"/></svg><svg fill="none" viewBox="0 0 21 14" id="css--showpass" xmlns="http://www.w3.org/2000/svg"><path fill-rule="evenodd" clip-rule="evenodd" d="M8.29 4.879A3.192 3.192 0 0110.5 4c.829 0 1.624.316 2.21.879A2.94 2.94 0 0113.625 7a2.94 2.94 0 01-.915 2.121A3.192 3.192 0 0110.5 10a3.192 3.192 0 01-2.21-.879A2.94 2.94 0 017.375 7c0-.796.33-1.559.915-2.121zM10.5 6c-.276 0-.541.105-.737.293A.98.98 0 009.458 7c0 .265.11.52.305.707.196.188.46.293.737.293.276 0 .541-.105.737-.293A.98.98 0 0011.542 7a.98.98 0 00-.305-.707A1.064 1.064 0 0010.5 6z" fill="#000"/><path fill-rule="evenodd" clip-rule="evenodd" d="M2.351 7c2.306 3.441 5.025 5 8.149 5 3.124 0 5.843-1.559 8.149-5-2.306-3.441-5.025-5-8.15-5-3.123 0-5.842 1.559-8.148 5zm-2.12-.514C2.857 2.285 6.276 0 10.5 0c4.225 0 7.643 2.286 10.268 6.486a.966.966 0 010 1.029C18.143 11.713 14.725 14 10.5 14 6.275 14 2.856 11.714.232 7.514a.966.966 0 010-1.029z" fill="#000"/></svg><svg fill="none" viewBox="0 0 24 24" id="css--typefill" xmlns="http://www.w3.org/2000/svg"><path d="M20.28 4.74a5.82 5.82 0 00-8.28 0 5.82 5.82 0 00-8.28 0 5.94 5.94 0 000 8.34l7.57 7.62a1.001 1.001 0 001.42 0l7.57-7.62a5.91 5.91 0 000-8.34z" fill="#0D0D0D"/></svg><svg fill="none" viewBox="0 0 24 24" id="css--typehover" xmlns="http://www.w3.org/2000/svg"><circle cx="12" cy="12" r="8" fill="gray"/><path fill-rule="evenodd" clip-rule="evenodd" d="M8.146 8.146a.5.5 0 01.708 0l7 7a.5.5 0 01-.708.708l-7-7a.5.5 0 010-.708z" fill="#F2F2F2"/><path fill-rule="evenodd" clip-rule="evenodd" d="M15.854 8.146a.5.5 0 010 .708l-7 7a.5.5 0 01-.708-.708l7-7a.5.5 0 01.708 0z" fill="#F2F2F2"/></svg></svg>