<svg width="16" height="16" viewBox="0 0 16 16" fill="none" xmlns="http://www.w3.org/2000/svg">
<g id="sign-out-alt-2">
<path id="secondary (Stroke)" fill-rule="evenodd" clip-rule="evenodd" d="M4.66797 8.00065C4.66797 7.63246 4.96645 7.33398 5.33464 7.33398H14.0013C14.3695 7.33398 14.668 7.63246 14.668 8.00065C14.668 8.36884 14.3695 8.66732 14.0013 8.66732H5.33464C4.96645 8.66732 4.66797 8.36884 4.66797 8.00065Z" fill="#0D0D0D"/>
<path id="secondary (Stroke)_2" fill-rule="evenodd" clip-rule="evenodd" d="M10.8632 4.86128C11.1236 4.60093 11.5457 4.60093 11.806 4.86128L14.4727 7.52794C14.7331 7.78829 14.7331 8.2104 14.4727 8.47075L11.806 11.1374C11.5457 11.3978 11.1236 11.3978 10.8632 11.1374C10.6029 10.8771 10.6029 10.455 10.8632 10.1946L13.0585 7.99935L10.8632 5.80409C10.6029 5.54374 10.6029 5.12163 10.8632 4.86128Z" fill="#0D0D0D"/>
<path id="primary (Stroke)" fill-rule="evenodd" clip-rule="evenodd" d="M1.72256 1.72451C1.9726 1.47446 2.31174 1.33398 2.66536 1.33398H7.9987C8.35232 1.33398 8.69146 1.47446 8.94151 1.72451C9.19155 1.97456 9.33203 2.3137 9.33203 2.66732V5.33398C9.33203 5.70217 9.03355 6.00065 8.66536 6.00065C8.29717 6.00065 7.9987 5.70217 7.9987 5.33398V2.66732H2.66536V13.334H7.9987V10.6673C7.9987 10.2991 8.29717 10.0007 8.66536 10.0007C9.03355 10.0007 9.33203 10.2991 9.33203 10.6673V13.334C9.33203 13.6876 9.19156 14.0267 8.94151 14.2768C8.69146 14.5268 8.35232 14.6673 7.9987 14.6673H2.66536C2.31174 14.6673 1.9726 14.5268 1.72256 14.2768C1.47251 14.0267 1.33203 13.6876 1.33203 13.334V2.66732C1.33203 2.3137 1.47251 1.97456 1.72256 1.72451Z" fill="#0D0D0D"/>
</g>
</svg>
