<svg width="20" height="20" viewBox="0 0 20 20" fill="none" xmlns="http://www.w3.org/2000/svg">
<path fill-rule="evenodd" clip-rule="evenodd" d="M11.0771 3.57733C10.7516 3.90277 10.7516 4.4304 11.0771 4.75584L16.3212 9.99992L11.0771 15.244C10.7516 15.5694 10.7516 16.0971 11.0771 16.4225C11.4025 16.7479 11.9302 16.7479 12.2556 16.4225L18.0889 10.5892C18.4144 10.2637 18.4144 9.7361 18.0889 9.41066L12.2556 3.57733C11.9302 3.25189 11.4025 3.25189 11.0771 3.57733Z" fill="#0D0D0D"/>
<path fill-rule="evenodd" clip-rule="evenodd" d="M18.333 10.0001C18.333 9.53984 17.9599 9.16675 17.4997 9.16675H2.49967C2.03944 9.16675 1.66634 9.53984 1.66634 10.0001C1.66634 10.4603 2.03944 10.8334 2.49967 10.8334H17.4997C17.9599 10.8334 18.333 10.4603 18.333 10.0001Z" fill="#0D0D0D"/>
</svg>
