<svg width="24" height="24" viewBox="0 0 24 24" fill="none" xmlns="http://www.w3.org/2000/svg">
<path fill-rule="evenodd" clip-rule="evenodd" d="M12 4C11.4696 4 10.9609 4.21071 10.5858 4.58579C10.2107 4.96086 10 5.46957 10 6V11C10 11.5523 9.55228 12 9 12C8.44772 12 8 11.5523 8 11V6C8 4.93913 8.42143 3.92172 9.17157 3.17157C9.92172 2.42143 10.9391 2 12 2C13.0609 2 14.0783 2.42143 14.8284 3.17157C15.5786 3.92172 16 4.93913 16 6V11C16 11.5523 15.5523 12 15 12C14.4477 12 14 11.5523 14 11V6C14 5.46957 13.7893 4.96086 13.4142 4.58579C13.0391 4.21071 12.5304 4 12 4Z" fill="#0D0D0D"/>
<path fill-rule="evenodd" clip-rule="evenodd" d="M4.91874 8.84661C5.00516 7.80461 5.94193 7 7.06866 7H16.9313C18.0581 7 18.9948 7.80461 19.0813 8.84661L19.9935 19.8466C20.0899 21.0082 19.0997 22 17.8436 22H6.15639C4.90035 22 3.91014 21.0082 4.00648 19.8466L4.91874 8.84661ZM16.9313 9L7.06866 9L6.15639 20L17.8436 20L16.9313 9Z" fill="#0D0D0D"/>
</svg>
