<svg width="20" height="20" viewBox="0 0 20 20" fill="none" xmlns="http://www.w3.org/2000/svg">
<g id="cross">
<path id="primary (Stroke)" fill-rule="evenodd" clip-rule="evenodd" d="M3.57733 3.57757C3.90277 3.25214 4.4304 3.25214 4.75584 3.57757L16.4225 15.2442C16.7479 15.5697 16.7479 16.0973 16.4225 16.4228C16.0971 16.7482 15.5694 16.7482 15.244 16.4228L3.57733 4.75609C3.25189 4.43065 3.25189 3.90301 3.57733 3.57757Z" fill="#0D0D0D"/>
<path id="primary (Stroke)_2" fill-rule="evenodd" clip-rule="evenodd" d="M16.4225 3.57757C16.7479 3.90301 16.7479 4.43065 16.4225 4.75609L4.75584 16.4228C4.4304 16.7482 3.90277 16.7482 3.57733 16.4228C3.25189 16.0973 3.25189 15.5697 3.57733 15.2442L15.244 3.57757C15.5694 3.25214 16.0971 3.25214 16.4225 3.57757Z" fill="#0D0D0D"/>
</g>
</svg>
