<svg width="20" height="20" viewBox="0 0 20 20" fill="none" xmlns="http://www.w3.org/2000/svg">
<path fill-rule="evenodd" clip-rule="evenodd" d="M5.33203 3.33398C5.70022 3.33398 5.9987 3.63246 5.9987 4.00065V12.7817C6.2773 12.8802 6.53331 13.0402 6.74625 13.2531C7.12132 13.6282 7.33203 14.1369 7.33203 14.6673C7.33203 15.0629 7.21473 15.4496 6.99497 15.7785C6.77521 16.1074 6.46285 16.3637 6.0974 16.5151C5.73195 16.6665 5.32981 16.7061 4.94185 16.6289C4.55389 16.5517 4.19752 16.3612 3.91782 16.0815C3.63811 15.8018 3.44763 15.4455 3.37046 15.0575C3.29329 14.6695 3.3329 14.2674 3.48427 13.902C3.63565 13.5365 3.89199 13.2241 4.22089 13.0044C4.35995 12.9115 4.50934 12.8369 4.66537 12.7817V4.00065C4.66537 3.63246 4.96384 3.33398 5.33203 3.33398ZM8.88756 3.67105C9.21646 3.45128 9.60314 3.33398 9.9987 3.33398C10.5291 3.33398 11.0378 3.5447 11.4129 3.91977C11.788 4.29484 11.9987 4.80355 11.9987 5.33398C11.9987 5.72955 11.8814 6.11623 11.6616 6.44512C11.4419 6.77402 11.1295 7.03037 10.7641 7.18174C10.7314 7.19526 10.6985 7.20788 10.6654 7.2196V16.0007C10.6654 16.3688 10.3669 16.6673 9.9987 16.6673C9.63051 16.6673 9.33203 16.3688 9.33203 16.0007V7.2196C9.05195 7.12058 8.79625 6.95996 8.58449 6.7482C8.30478 6.46849 8.1143 6.11213 8.03713 5.72417C7.95996 5.3362 7.99956 4.93407 8.15094 4.56862C8.30231 4.20316 8.55866 3.89081 8.88756 3.67105ZM9.99918 6.00065C10.0861 6.00059 10.1727 5.98351 10.2538 5.9499C10.3756 5.89945 10.4798 5.814 10.553 5.70436C10.6263 5.59473 10.6654 5.46584 10.6654 5.33398C10.6654 5.15717 10.5951 4.9876 10.4701 4.86258C10.3451 4.73756 10.1755 4.66732 9.9987 4.66732C9.86684 4.66732 9.73795 4.70642 9.62832 4.77967C9.51869 4.85293 9.43324 4.95704 9.38278 5.07886C9.33232 5.20068 9.31912 5.33472 9.34484 5.46404C9.37056 5.59336 9.43406 5.71215 9.52729 5.80539C9.62053 5.89862 9.73932 5.96212 9.86864 5.98784C9.91184 5.99643 9.95556 6.00068 9.99918 6.00065ZM14.6654 3.33398C15.0336 3.33398 15.332 3.63246 15.332 4.00065V8.11503C15.6106 8.21354 15.8666 8.3735 16.0796 8.58644C16.4547 8.96151 16.6654 9.47022 16.6654 10.0007C16.6654 10.3962 16.5481 10.7829 16.3283 11.1118C16.1085 11.4407 15.7962 11.697 15.4307 11.8484C15.3981 11.8619 15.3652 11.8745 15.332 11.8863V16.0007C15.332 16.3688 15.0336 16.6673 14.6654 16.6673C14.2972 16.6673 13.9987 16.3688 13.9987 16.0007V11.8863C13.7186 11.7872 13.4629 11.6266 13.2512 11.4149C12.9714 11.1352 12.781 10.7788 12.7038 10.3908C12.6266 10.0029 12.6662 9.60074 12.8176 9.23528C12.969 8.86983 13.2253 8.55748 13.5542 8.33771C13.6933 8.24479 13.8427 8.17019 13.9987 8.11503V4.00065C13.9987 3.63246 14.2972 3.33398 14.6654 3.33398ZM14.6659 10.6673C14.7529 10.6672 14.8394 10.6502 14.9205 10.6166C15.0423 10.5661 15.1464 10.4807 15.2197 10.371C15.2929 10.2614 15.332 10.1325 15.332 10.0007C15.332 9.82384 15.2618 9.65427 15.1368 9.52925C15.0117 9.40422 14.8422 9.33398 14.6654 9.33398C14.5335 9.33398 14.4046 9.37308 14.295 9.44634C14.1854 9.51959 14.0999 9.62371 14.0494 9.74553C13.999 9.86735 13.9858 10.0014 14.0115 10.1307C14.0372 10.26 14.1007 10.3788 14.194 10.4721C14.2872 10.5653 14.406 10.6288 14.5353 10.6545C14.5785 10.6631 14.6223 10.6674 14.6659 10.6673ZM5.33203 14.0007C5.20018 14.0007 5.07128 14.0398 4.96165 14.113C4.85202 14.1863 4.76657 14.2904 4.71611 14.4122C4.66565 14.534 4.65245 14.6681 4.67818 14.7974C4.7039 14.9267 4.76739 15.0455 4.86063 15.1387C4.95386 15.232 5.07265 15.2955 5.20197 15.3212C5.33129 15.3469 5.46534 15.3337 5.58715 15.2832C5.70897 15.2328 5.81309 15.1473 5.88635 15.0377C5.9596 14.9281 5.9987 14.7992 5.9987 14.6673C5.9987 14.4905 5.92846 14.3209 5.80344 14.1959C5.67841 14.0709 5.50884 14.0007 5.33203 14.0007Z" fill="#0D0D0D"/>
</svg>
