<svg width="54" height="54" viewBox="0 0 54 54" fill="none" xmlns="http://www.w3.org/2000/svg">
<path fill-rule="evenodd" clip-rule="evenodd" d="M42.08 42.0895L42.0894 42.08C44.0718 40.1027 45.6439 37.7531 46.7154 35.1663C47.7869 32.5795 48.3367 29.8065 48.3333 27.0066L48.3333 26.9934C48.3367 24.1935 47.7869 21.4205 46.7154 18.8337C45.6439 16.2469 44.0718 13.8973 42.0894 11.92L42.08 11.9105C40.1026 9.92816 37.753 8.35607 35.1663 7.28455C32.5795 6.21304 29.8064 5.66321 27.0065 5.66666L26.9934 5.66668C24.1934 5.66321 21.4204 6.21304 18.8336 7.28455C16.2468 8.35607 13.8973 9.92816 11.9199 11.9105L11.9104 11.92C9.9281 13.8973 8.35601 16.2469 7.28449 18.8337C6.21298 21.4205 5.66315 24.1935 5.6666 26.9934L5.66662 27.0066C5.66315 29.8065 6.21298 32.5795 7.28449 35.1663C8.35601 37.7531 9.9281 40.1027 11.9104 42.08L11.9199 42.0895C13.8973 44.0718 16.2468 45.6439 18.8336 46.7155C21.4204 47.787 24.1934 48.3368 26.9934 48.3333L27.0065 48.3333C29.8064 48.3368 32.5795 47.787 35.1663 46.7155C37.753 45.6439 40.1026 44.0718 42.08 42.0895ZM26.9999 53.6667C30.5025 53.671 33.9714 52.9832 37.2073 51.6428C40.4432 50.3024 43.3824 48.3358 45.8559 45.856C48.3357 43.3824 50.3023 40.4433 51.6427 37.2073C52.9831 33.9714 53.6709 30.5025 53.6666 27C53.6709 23.4975 52.9831 20.0286 51.6427 16.7927C50.3023 13.5567 48.3357 10.6176 45.8559 8.144C43.3824 5.66421 40.4432 3.69763 37.2073 2.35722C33.9714 1.01682 30.5025 0.329014 26.9999 0.333333C23.4974 0.329014 20.0285 1.01682 16.7926 2.35722C13.5567 3.69763 10.6175 5.66421 8.14394 8.144C5.66415 10.6176 3.69756 13.5567 2.35716 16.7927C1.01675 20.0286 0.328953 23.4975 0.333272 27C0.328953 30.5025 1.01675 33.9714 2.35716 37.2073C3.69756 40.4433 5.66415 43.3824 8.14394 45.856C10.6175 48.3358 13.5567 50.3024 16.7926 51.6428C20.0285 52.9832 23.4974 53.671 26.9999 53.6667Z" fill="#21A74D"/>
<path fill-rule="evenodd" clip-rule="evenodd" d="M26.9998 44.3334C27.8839 44.3334 28.7317 43.9822 29.3569 43.357C29.982 42.7319 30.3332 41.8841 30.3332 41C30.3332 40.116 29.982 39.2681 29.3569 38.643C28.7317 38.0179 27.8839 37.6667 26.9998 37.6667C26.1158 37.6667 25.2679 38.0179 24.6428 38.643C24.0177 39.2681 23.6665 40.116 23.6665 41C23.6665 41.8841 24.0177 42.7319 24.6428 43.357C25.2679 43.9822 26.1158 44.3334 26.9998 44.3334Z" fill="#21A74D"/>
<path fill-rule="evenodd" clip-rule="evenodd" d="M26.9999 8.33331C28.4727 8.33331 29.6666 9.52722 29.6666 11V32.3333C29.6666 33.8061 28.4727 35 26.9999 35C25.5272 35 24.3333 33.8061 24.3333 32.3333V11C24.3333 9.52722 25.5272 8.33331 26.9999 8.33331Z" fill="#21A74D"/>
</svg>
