<svg width="13" height="16" viewBox="0 0 13 16" fill="none" xmlns="http://www.w3.org/2000/svg">
<path fill-rule="evenodd" clip-rule="evenodd" d="M6.1665 2C5.76868 2 5.38715 2.15804 5.10584 2.43934C4.82454 2.72064 4.6665 3.10218 4.6665 3.5V7.25C4.6665 7.66421 4.33072 8 3.9165 8C3.50229 8 3.1665 7.66421 3.1665 7.25V3.5C3.1665 2.70435 3.48257 1.94129 4.04518 1.37868C4.60779 0.816071 5.37085 0.5 6.1665 0.5C6.96215 0.5 7.72522 0.816071 8.28782 1.37868C8.85043 1.94129 9.1665 2.70435 9.1665 3.5V7.25C9.1665 7.66421 8.83072 8 8.4165 8C8.00229 8 7.6665 7.66421 7.6665 7.25V3.5C7.6665 3.10218 7.50847 2.72064 7.22716 2.43934C6.94586 2.15804 6.56433 2 6.1665 2Z" fill="#F2F2F2"/>
<path fill-rule="evenodd" clip-rule="evenodd" d="M0.855562 5.63496C0.920374 4.85346 1.62295 4.25 2.468 4.25H9.86501C10.7101 4.25 11.4126 4.85346 11.4774 5.63496L12.1616 13.885C12.2339 14.7561 11.4912 15.5 10.5492 15.5H1.7838C0.841764 15.5 0.0991126 14.7561 0.171363 13.885L0.855562 5.63496ZM9.86501 5.75L2.468 5.75L1.7838 14L10.5492 14L9.86501 5.75Z" fill="#F2F2F2"/>
</svg>
