<svg width="16" height="16" viewBox="0 0 16 16" fill="none" xmlns="http://www.w3.org/2000/svg">
<path fill-rule="evenodd" clip-rule="evenodd" d="M5.24099 2.00001L5.25095 2C6.28206 2.00626 7.26924 2.41715 8.00017 3.1438C8.35873 2.7839 8.78442 2.49774 9.2532 2.30157C9.72841 2.10271 10.2384 2.0003 10.7536 2.0003C11.2687 2.0003 11.7787 2.10271 12.2539 2.30157C12.7286 2.50021 13.1591 2.79112 13.5205 3.15743C14.2552 3.89575 14.6677 4.89499 14.6677 5.93665C14.6677 6.97862 14.255 7.97814 13.5198 8.71652C13.5196 8.71672 13.5194 8.71692 13.5192 8.71712L8.4735 13.8029C8.34832 13.929 8.17796 14 8.00023 14C7.82251 14 7.65215 13.929 7.52697 13.8029L2.48058 8.71647C2.48049 8.71638 2.48067 8.71656 2.48058 8.71647C1.93446 8.16656 1.56238 7.46751 1.41141 6.70733C1.26042 5.94703 1.33705 5.15908 1.63172 4.44211C1.92638 3.72515 2.42599 3.11104 3.06799 2.67665C3.70999 2.24226 4.46587 2.00689 5.24099 2.00001ZM5.24784 3.33334C4.73677 3.33885 4.23855 3.49449 3.81518 3.78095C3.39044 4.06834 3.0599 4.47463 2.86496 4.94896C2.67001 5.4233 2.61931 5.9446 2.7192 6.44761C2.8191 6.95062 3.06515 7.41299 3.42656 7.77684L8.00023 12.3868L12.5746 7.77619C13.0612 7.28764 13.3344 6.62619 13.3344 5.93665C13.3344 5.24711 13.0612 4.58567 12.5746 4.09712L12.5721 4.09464C12.3345 3.8536 12.0514 3.6622 11.7392 3.53155C11.427 3.40091 11.092 3.33364 10.7536 3.33364C10.4151 3.33364 10.0801 3.40091 9.7679 3.53155C9.45571 3.6622 9.17261 3.8536 8.93504 4.09463L8.92919 4.10057C8.79161 4.23671 8.67168 4.38958 8.57229 4.55566C8.4519 4.75684 8.23468 4.87999 8.00023 4.87999C7.76579 4.87999 7.54857 4.75684 7.42818 4.55566C7.32879 4.38958 7.20889 4.23667 7.07132 4.10053L7.06815 4.0974C6.58538 3.61326 5.9314 3.3388 5.24784 3.33334Z" fill="#0D0D0D"/>
</svg>
