<svg width="16" height="16" viewBox="0 0 16 16" fill="none" xmlns="http://www.w3.org/2000/svg">
<path fill-rule="evenodd" clip-rule="evenodd" d="M4.66406 8.00065C4.66406 7.63246 4.96254 7.33398 5.33073 7.33398H13.9974C14.3656 7.33398 14.6641 7.63246 14.6641 8.00065C14.6641 8.36884 14.3656 8.66732 13.9974 8.66732H5.33073C4.96254 8.66732 4.66406 8.36884 4.66406 8.00065Z" fill="#0D0D0D"/>
<path fill-rule="evenodd" clip-rule="evenodd" d="M10.8593 4.86323C11.1197 4.60288 11.5418 4.60288 11.8021 4.86323L14.4688 7.5299C14.7291 7.79025 14.7291 8.21236 14.4688 8.47271L11.8021 11.1394C11.5418 11.3997 11.1197 11.3997 10.8593 11.1394C10.599 10.879 10.599 10.4569 10.8593 10.1966L13.0546 8.0013L10.8593 5.80604C10.599 5.54569 10.599 5.12358 10.8593 4.86323Z" fill="#0D0D0D"/>
<path fill-rule="evenodd" clip-rule="evenodd" d="M1.72256 1.72451C1.9726 1.47446 2.31174 1.33398 2.66536 1.33398H7.9987C8.35232 1.33398 8.69146 1.47446 8.94151 1.72451C9.19155 1.97456 9.33203 2.3137 9.33203 2.66732V5.33398C9.33203 5.70217 9.03355 6.00065 8.66536 6.00065C8.29717 6.00065 7.9987 5.70217 7.9987 5.33398V2.66732H2.66536V13.334H7.9987V10.6673C7.9987 10.2991 8.29717 10.0007 8.66536 10.0007C9.03355 10.0007 9.33203 10.2991 9.33203 10.6673V13.334C9.33203 13.6876 9.19156 14.0267 8.94151 14.2768C8.69146 14.5268 8.35232 14.6673 7.9987 14.6673H2.66536C2.31174 14.6673 1.9726 14.5268 1.72256 14.2768C1.47251 14.0267 1.33203 13.6876 1.33203 13.334V2.66732C1.33203 2.3137 1.47251 1.97456 1.72256 1.72451Z" fill="#0D0D0D"/>
</svg>
