<svg width="70" height="24" viewBox="0 0 70 24" fill="none" xmlns="http://www.w3.org/2000/svg">
<g clip-path="url(#clip0_689_6069)">
<mask id="mask0_689_6069" style="mask-type:luminance" maskUnits="userSpaceOnUse" x="0" y="0" width="70" height="24">
<path d="M69.6828 0H0V24H69.6828V0Z" fill="white"/>
</mask>
<g mask="url(#mask0_689_6069)">
<path d="M2.09766 2.11133V22.2515H15.0941V19.5635H4.74593V2.11133H2.09766Z" fill="black"/>
<mask id="mask1_689_6069" style="mask-type:luminance" maskUnits="userSpaceOnUse" x="0" y="0" width="70" height="24">
<path d="M69.6828 0H0V24H69.6828V0Z" fill="white"/>
</mask>
<g mask="url(#mask1_689_6069)">
<path d="M28.1727 8.62719C26.2792 6.89257 24.4585 6.50195 22.7769 6.50195C19.0362 6.50195 15.2227 9.2694 15.2227 14.3409C15.2227 18.6377 18.1953 22.3651 23.0152 22.3651C24.1275 22.3651 26.5838 21.9944 28.1793 20.3591V22.1996H30.7482V6.60126H28.1793V8.62057L28.1727 8.62719ZM22.81 9.01782C30 8.97809 29.4505 20.2399 22.896 20.0479C20.0491 19.9618 17.626 17.532 17.626 14.4534C17.626 11.3748 19.738 9.03106 22.81 9.01782Z" fill="black"/>
<path d="M67.3873 6.58008H64.8516V22.2579H67.3873V6.58008Z" fill="black"/>
<path d="M67.3873 1.97266H64.8516V4.68714H67.3873V1.97266Z" fill="black"/>
<path d="M33.8086 1.78711V22.2517H36.245V15.4655L36.8872 14.8034L42.8789 22.2517H45.8251L38.4629 13.2144L44.7195 6.77911H41.7799L36.245 12.3802V1.78711H33.8086Z" fill="black"/>
<path d="M47.3465 1.78711V22.1855H49.8822V20.1397C51.5572 21.7088 53.5434 22.2649 55.2251 22.2649C59.8463 22.2649 63.1037 19.1399 63.1037 14.3598C63.1037 8.65276 59.3829 6.46132 55.3045 6.46132C54.1658 6.46132 51.5307 6.87842 49.8756 8.61304V1.78711H47.3398H47.3465ZM55.3112 8.8249C58.3964 8.8249 60.6408 10.9435 60.6408 14.4128C60.6408 17.6701 58.3765 19.8417 55.3112 19.8417C48.419 19.8417 48.1741 8.83152 55.3112 8.83152" fill="black"/>
</g>
</g>
</g>
<defs>
<clipPath id="clip0_689_6069">
<rect width="69.6828" height="24" fill="white"/>
</clipPath>
</defs>
</svg>
