<svg width="16" height="16" viewBox="0 0 16 16" fill="none" xmlns="http://www.w3.org/2000/svg">
<path fill-rule="evenodd" clip-rule="evenodd" d="M8.00008 2.6665C8.36827 2.6665 8.66675 2.96498 8.66675 3.33317V7.33317H12.6667C13.0349 7.33317 13.3334 7.63165 13.3334 7.99984C13.3334 8.36803 13.0349 8.6665 12.6667 8.6665H8.66675V12.6665C8.66675 13.0347 8.36827 13.3332 8.00008 13.3332C7.63189 13.3332 7.33341 13.0347 7.33341 12.6665V8.6665H3.33341C2.96522 8.6665 2.66675 8.36803 2.66675 7.99984C2.66675 7.63165 2.96522 7.33317 3.33341 7.33317H7.33341V3.33317C7.33341 2.96498 7.63189 2.6665 8.00008 2.6665Z" fill="#0D0D0D"/>
</svg>
