<svg width="21" height="21" viewBox="0 0 21 21" fill="none" xmlns="http://www.w3.org/2000/svg">
<path fill-rule="evenodd" clip-rule="evenodd" d="M9.76232 8.29178C10.1692 8.69851 10.1693 9.35805 9.76258 9.76492C9.56726 9.96032 9.45755 10.2253 9.4576 10.5016C9.45765 10.7779 9.56745 11.0428 9.76284 11.2381C9.95824 11.4335 10.2232 11.5432 10.4995 11.5431C10.7758 11.5431 11.0407 11.4333 11.2361 11.2379C11.6428 10.831 12.3023 10.8309 12.7092 11.2376C13.1161 11.6443 13.1162 12.3039 12.7095 12.7108C12.1235 13.2969 11.3287 13.6263 10.4999 13.6265C9.67106 13.6266 8.87613 13.2975 8.28996 12.7115C7.7038 12.1256 7.37441 11.3308 7.37427 10.502C7.37412 9.67314 7.70323 8.87821 8.28918 8.29204C8.69591 7.88518 9.35545 7.88506 9.76232 8.29178Z" fill="#0D0D0D"/>
<path fill-rule="evenodd" clip-rule="evenodd" d="M0.388349 0.388593C0.795145 -0.018203 1.45469 -0.018203 1.86149 0.388593L16.0283 14.5554C16.086 14.6017 16.1394 14.6548 16.1873 14.7144L20.6115 19.1386C21.0183 19.5454 21.0183 20.2049 20.6115 20.6117C20.2047 21.0185 19.5451 21.0185 19.1383 20.6117L15.1952 16.6686C13.7465 17.4156 12.1345 17.803 10.4962 17.7918C6.27338 17.7904 2.8556 15.4093 0.231697 11.0361C0.0337703 10.7062 0.0337703 10.2941 0.231697 9.96423C1.34568 8.1076 2.60312 6.60428 4.01651 5.4899L0.388349 1.86173C-0.0184471 1.45494 -0.0184471 0.795389 0.388349 0.388593ZM5.50215 6.97553C4.38563 7.81143 3.33172 8.97622 2.35103 10.5002C4.6566 14.0846 7.37613 15.7085 10.4999 15.7085H10.5074V15.7085C11.5821 15.7162 12.6426 15.5079 13.6276 15.101L5.50215 6.97553ZM10.4966 5.29182C9.93066 5.29001 9.36601 5.34586 8.8114 5.45849C8.24761 5.57299 7.69776 5.20877 7.58326 4.64498C7.46876 4.08119 7.83298 3.53133 8.39677 3.41683C9.0895 3.27615 9.79476 3.20635 10.5016 3.2085C14.7254 3.20914 18.1438 5.59037 20.7681 9.96423C20.9662 10.2942 20.9661 10.7066 20.7679 11.0365C20.0412 12.2464 19.2549 13.3052 18.4052 14.205C18.0102 14.6232 17.3509 14.6421 16.9326 14.2471C16.5144 13.8521 16.4955 13.1928 16.8905 12.7745C17.4998 12.1293 18.0866 11.3726 18.6487 10.4999C16.3431 6.91563 13.6236 5.29183 10.4999 5.29183L10.4966 5.29182Z" fill="#0D0D0D"/>
</svg>
