<svg width="25" height="25" viewBox="0 0 25 25" fill="none" xmlns="http://www.w3.org/2000/svg">
<path d="M12.5 22.5C12.5 22.5 5.5 14.3333 5.5 8.5C5.5 6.64348 6.2375 4.86301 7.55025 3.55025C8.86301 2.2375 10.6435 1.5 12.5 1.5C14.3565 1.5 16.137 2.2375 17.4497 3.55025C18.7625 4.86301 19.5 6.64348 19.5 8.5C19.5 14.3333 12.5 22.5 12.5 22.5ZM12.5 6.16667C12.0385 6.16667 11.5874 6.30351 11.2037 6.5599C10.82 6.81629 10.5209 7.18071 10.3443 7.60707C10.1677 8.03343 10.1215 8.50259 10.2115 8.95521C10.3015 9.40783 10.5238 9.82359 10.8501 10.1499C11.1764 10.4762 11.5922 10.6985 12.0448 10.7885C12.4974 10.8785 12.9666 10.8323 13.3929 10.6557C13.8193 10.4791 14.1837 10.18 14.4401 9.79633C14.6965 9.41262 14.8333 8.96149 14.8333 8.5C14.8333 7.88116 14.5875 7.28767 14.1499 6.85008C13.7123 6.4125 13.1188 6.16667 12.5 6.16667Z" fill="#F2F2F2"/>
</svg>
