<svg width="20" height="20" viewBox="0 0 20 20" fill="none" xmlns="http://www.w3.org/2000/svg">
<g id="Search">
<path id="primary (Stroke)" fill-rule="evenodd" clip-rule="evenodd" d="M9.16663 3.33317C8.0129 3.33317 6.88509 3.67529 5.9258 4.31626C4.96652 4.95724 4.21884 5.86828 3.77733 6.93418C3.33582 8.00009 3.2203 9.17298 3.44538 10.3045C3.67046 11.4361 4.22603 12.4755 5.04184 13.2913C5.85765 14.1071 6.89705 14.6627 8.0286 14.8878C9.16016 15.1128 10.333 14.9973 11.3989 14.5558C12.4649 14.1143 13.3759 13.3666 14.0169 12.4073C14.6578 11.448 15 10.3202 15 9.1665C15 7.61941 14.3854 6.13568 13.2914 5.04171C12.1975 3.94775 10.7137 3.33317 9.16663 3.33317ZM4.99985 2.93048C6.23322 2.10637 7.68327 1.6665 9.16663 1.6665C11.1558 1.6665 13.0634 2.45668 14.4699 3.8632C15.8765 5.26973 16.6666 7.17738 16.6666 9.1665C16.6666 10.6499 16.2268 12.0999 15.4027 13.3333C15.2842 13.5105 15.1587 13.6821 15.0264 13.8477L18.0892 16.9106C18.4147 17.236 18.4147 17.7637 18.0892 18.0891C17.7638 18.4145 17.2361 18.4145 16.9107 18.0891L13.8478 15.0262C13.3003 15.4636 12.6912 15.8245 12.0368 16.0956C10.6663 16.6633 9.15831 16.8118 7.70345 16.5224C6.24859 16.233 4.91222 15.5187 3.86333 14.4698C2.81443 13.4209 2.10013 12.0845 1.81074 10.6297C1.52135 9.17482 1.66988 7.66682 2.23753 6.29638C2.80519 4.92593 3.76648 3.75459 4.99985 2.93048Z" fill="#0D0D0D"/>
</g>
</svg>
