<svg width="24" height="24" viewBox="0 0 24 24" fill="none" xmlns="http://www.w3.org/2000/svg">
<path fill-rule="evenodd" clip-rule="evenodd" d="M11 4C9.61553 4 8.26216 4.41054 7.11101 5.17971C5.95987 5.94888 5.06266 7.04213 4.53285 8.32122C4.00303 9.6003 3.86441 11.0078 4.13451 12.3656C4.4046 13.7235 5.07129 14.9708 6.05026 15.9497C7.02922 16.9287 8.27651 17.5954 9.63437 17.8655C10.9922 18.1356 12.3997 17.997 13.6788 17.4672C14.9579 16.9373 16.0511 16.0401 16.8203 14.889C17.5895 13.7378 18 12.3845 18 11C18 9.14348 17.2625 7.36301 15.9498 6.05025C14.637 4.7375 12.8565 4 11 4ZM5.99987 3.51677C7.47991 2.52784 9.21997 2 11 2C13.387 2 15.6761 2.94821 17.364 4.63604C19.0518 6.32387 20 8.61305 20 11C20 12.78 19.4722 14.5201 18.4832 16.0001C18.3411 16.2128 18.1904 16.4187 18.0317 16.6175L21.7071 20.2929C22.0976 20.6834 22.0976 21.3166 21.7071 21.7071C21.3166 22.0976 20.6834 22.0976 20.2929 21.7071L16.6175 18.0317C15.9604 18.5566 15.2295 18.9896 14.4442 19.3149C12.7996 19.9961 10.99 20.1743 9.24419 19.8271C7.49836 19.4798 5.89472 18.6226 4.63604 17.364C3.37737 16.1053 2.5202 14.5016 2.17294 12.7558C1.82567 11.01 2.0039 9.20038 2.68509 7.55585C3.36628 5.91131 4.51983 4.50571 5.99987 3.51677Z" fill="#0D0D0D"/>
</svg>
