<svg width="21" height="14" viewBox="0 0 21 14" fill="none" xmlns="http://www.w3.org/2000/svg">
<path fill-rule="evenodd" clip-rule="evenodd" d="M8.29029 4.87868C8.87634 4.31607 9.6712 4 10.5 4C11.3288 4 12.1237 4.31607 12.7097 4.87868C13.2958 5.44129 13.625 6.20435 13.625 7C13.625 7.79565 13.2958 8.55871 12.7097 9.12132C12.1237 9.68393 11.3288 10 10.5 10C9.6712 10 8.87634 9.68393 8.29029 9.12132C7.70424 8.55871 7.375 7.79565 7.375 7C7.375 6.20435 7.70424 5.44129 8.29029 4.87868ZM10.5 6C10.2237 6 9.95878 6.10536 9.76343 6.29289C9.56808 6.48043 9.45833 6.73478 9.45833 7C9.45833 7.26522 9.56808 7.51957 9.76343 7.70711C9.95878 7.89464 10.2237 8 10.5 8C10.7763 8 11.0412 7.89464 11.2366 7.70711C11.4319 7.51957 11.5417 7.26522 11.5417 7C11.5417 6.73478 11.4319 6.48043 11.2366 6.29289C11.0412 6.10536 10.7763 6 10.5 6Z" fill="black"/>
<path fill-rule="evenodd" clip-rule="evenodd" d="M2.35099 7C4.65657 10.4411 7.37611 12 10.4999 12C13.6237 12 16.3433 10.4411 18.6488 7C16.3433 3.55893 13.6237 2 10.4999 2C7.37611 2 4.65657 3.55893 2.35099 7ZM0.231697 6.4855C2.85637 2.28603 6.27538 0 10.4999 0C14.7245 0 18.1435 2.28603 20.7681 6.4855C20.9661 6.80219 20.9661 7.19781 20.7681 7.5145C18.1435 11.714 14.7245 14 10.4999 14C6.27538 14 2.85637 11.714 0.231697 7.5145C0.0337703 7.19781 0.0337703 6.80219 0.231697 6.4855Z" fill="black"/>
</svg>
