<svg width="24" height="24" viewBox="0 0 24 24" fill="none" xmlns="http://www.w3.org/2000/svg">
<circle cx="12" cy="12" r="8" fill="#808080"/>
<path fill-rule="evenodd" clip-rule="evenodd" d="M8.14645 8.14645C8.34171 7.95118 8.65829 7.95118 8.85355 8.14645L15.8536 15.1464C16.0488 15.3417 16.0488 15.6583 15.8536 15.8536C15.6583 16.0488 15.3417 16.0488 15.1464 15.8536L8.14645 8.85355C7.95118 8.65829 7.95118 8.34171 8.14645 8.14645Z" fill="#F2F2F2"/>
<path fill-rule="evenodd" clip-rule="evenodd" d="M15.8536 8.14645C16.0488 8.34171 16.0488 8.65829 15.8536 8.85355L8.85355 15.8536C8.65829 16.0488 8.34171 16.0488 8.14645 15.8536C7.95118 15.6583 7.95118 15.3417 8.14645 15.1464L15.1464 8.14645C15.3417 7.95118 15.6583 7.95118 15.8536 8.14645Z" fill="#F2F2F2"/>
</svg>
