<svg width="24" height="24" viewBox="0 0 24 24" fill="none" xmlns="http://www.w3.org/2000/svg">
<path d="M20.28 4.74017C19.7387 4.19231 19.0941 3.75734 18.3834 3.46047C17.6727 3.16361 16.9102 3.01074 16.14 3.01074C15.3699 3.01074 14.6074 3.16361 13.8967 3.46047C13.186 3.75734 12.5414 4.19231 12 4.74017C11.4587 4.19231 10.8141 3.75734 10.1034 3.46047C9.39273 3.16361 8.63022 3.01074 7.86004 3.01074C7.08987 3.01074 6.32735 3.16361 5.61669 3.46047C4.90603 3.75734 4.26136 4.19231 3.72004 4.74017C2.62444 5.85159 2.01025 7.34953 2.01025 8.91017C2.01025 10.4708 2.62444 11.9687 3.72004 13.0802L11.29 20.7002C11.383 20.7939 11.4936 20.8683 11.6155 20.9191C11.7373 20.9698 11.868 20.996 12 20.996C12.1321 20.996 12.2628 20.9698 12.3846 20.9191C12.5065 20.8683 12.6171 20.7939 12.71 20.7002L20.28 13.0802C21.3829 11.9726 22.0021 10.4732 22.0021 8.91017C22.0021 7.34714 21.3829 5.84777 20.28 4.74017Z" fill="#0D0D0D"/>
</svg>
