<svg width="24" height="24" viewBox="0 0 24 24" fill="none" xmlns="http://www.w3.org/2000/svg">
<g id="Type=Outline">
<path id="primary (Stroke)" fill-rule="evenodd" clip-rule="evenodd" d="M12 4C11.2089 4 10.4355 4.2346 9.77772 4.67412C9.11992 5.11365 8.60723 5.73836 8.30448 6.46927C8.00173 7.20017 7.92252 8.00444 8.07686 8.78036C8.2312 9.55629 8.61216 10.269 9.17157 10.8284C9.73098 11.3878 10.4437 11.7688 11.2196 11.9231C11.4765 11.9742 11.7365 11.9997 11.9959 12C11.9986 12 12.0013 12 12.0041 12C12.5255 11.9995 13.0443 11.897 13.5307 11.6955C14.2616 11.3928 14.8864 10.8801 15.3259 10.2223C15.7654 9.56448 16 8.79113 16 8C16 6.93913 15.5786 5.92172 14.8284 5.17157C14.0783 4.42143 13.0609 4 12 4ZM15.9124 12.549C16.3224 12.1963 16.6851 11.788 16.9888 11.3334C17.6481 10.3467 18 9.18669 18 8C18 6.4087 17.3679 4.88258 16.2426 3.75736C15.1174 2.63214 13.5913 2 12 2C10.8133 2 9.65327 2.35189 8.66658 3.01118C7.67988 3.67047 6.91085 4.60754 6.45672 5.7039C6.0026 6.80026 5.88378 8.00666 6.11529 9.17054C6.3468 10.3344 6.91824 11.4035 7.75736 12.2426C7.86383 12.3491 7.974 12.4513 8.08759 12.549C7.0684 12.9474 6.1319 13.5544 5.34315 14.3431C3.84285 15.8434 3 17.8783 3 20C3 20.5304 3.21071 21.0391 3.58579 21.4142C3.96086 21.7893 4.46957 22 5 22H19C19.5304 22 20.0391 21.7893 20.4142 21.4142C20.7893 21.0391 21 20.5304 21 20C21 17.8783 20.1571 15.8434 18.6569 14.3431C17.8681 13.5544 16.9316 12.9474 15.9124 12.549ZM12.006 14C12.002 14 11.9979 14 11.9939 14H11C9.4087 14 7.88258 14.6321 6.75736 15.7574C5.63214 16.8826 5 18.4087 5 20H19C19 18.4087 18.3679 16.8826 17.2426 15.7574C16.1174 14.6321 14.5913 14 13 14H12.006Z" fill="#0D0D0D"/>
</g>
</svg>
